<svg width="187" height="62" viewBox="0 0 187 62" fill="none" xmlns="http://www.w3.org/2000/svg">
<path fill-rule="evenodd" clip-rule="evenodd" d="M0 25.6102V25.7464L30.0973 40.2823L60.3023 25.6976V25.6611L30.0973 11.0742L0 25.6102ZM10.8512 25.6788L30.0973 16.3827L49.3478 25.6788L30.0973 34.9739L10.8512 25.6788ZM30.0973 45.9284L0 31.6106V36.9068L30.0973 51.259L60.3023 36.857V31.5607L30.0973 45.9284ZM30.0973 56.6705L0 42.3493V47.6444L30.0973 61.9999L60.3023 47.5968V42.3005L30.0973 56.6705Z" fill="white"/>
<path d="M77.848 49V12.08H102.652V18.372H85.024V27.888H99.688V33.712H85.024V49H77.848ZM105.168 54.304C105.792 54.4427 106.364 54.564 106.884 54.668C107.439 54.772 107.907 54.824 108.288 54.824C108.947 54.824 109.484 54.6507 109.9 54.304C110.351 53.992 110.784 53.4027 111.2 52.536C111.616 51.704 112.049 50.5253 112.5 49L101.736 21.752H108.964L116.296 41.876L122.744 21.752H129.4L117.96 54.408C117.544 55.6213 116.903 56.7133 116.036 57.684C115.204 58.6893 114.147 59.4693 112.864 60.024C111.616 60.6133 110.212 60.908 108.652 60.908C108.097 60.908 107.543 60.856 106.988 60.752C106.433 60.6827 105.827 60.544 105.168 60.336V54.304ZM131.054 11.04H138.022V40.264C138.022 41.512 138.23 42.3613 138.646 42.812C139.062 43.228 139.634 43.436 140.362 43.436C140.916 43.436 141.488 43.3667 142.078 43.228C142.667 43.0893 143.187 42.916 143.638 42.708L144.574 48.012C143.638 48.4627 142.546 48.8093 141.298 49.052C140.05 49.2947 138.923 49.416 137.918 49.416C135.734 49.416 134.035 48.844 132.822 47.7C131.643 46.5213 131.054 44.8573 131.054 42.708V11.04ZM158.114 49.52C155.895 49.52 153.902 49.156 152.134 48.428C150.366 47.6653 148.858 46.6253 147.61 45.308C146.396 43.9907 145.46 42.4827 144.802 40.784C144.143 39.0853 143.814 37.3 143.814 35.428C143.814 33.5213 144.143 31.7187 144.802 30.02C145.46 28.3213 146.396 26.8133 147.61 25.496C148.858 24.1787 150.366 23.156 152.134 22.428C153.902 21.6653 155.895 21.284 158.114 21.284C160.332 21.284 162.308 21.6653 164.042 22.428C165.81 23.156 167.318 24.1787 168.566 25.496C169.814 26.8133 170.75 28.3213 171.374 30.02C172.032 31.7187 172.362 33.5213 172.362 35.428C172.362 37.3 172.032 39.0853 171.374 40.784C170.75 42.4827 169.814 43.9907 168.566 45.308C167.352 46.6253 165.862 47.6653 164.094 48.428C162.326 49.156 160.332 49.52 158.114 49.52ZM150.99 35.428C150.99 37.0227 151.302 38.444 151.926 39.692C152.55 40.9053 153.399 41.8587 154.474 42.552C155.548 43.2453 156.762 43.592 158.114 43.592C159.431 43.592 160.627 43.2453 161.702 42.552C162.776 41.824 163.626 40.8533 164.25 39.64C164.908 38.392 165.238 36.9707 165.238 35.376C165.238 33.816 164.908 32.412 164.25 31.164C163.626 29.916 162.776 28.9453 161.702 28.252C160.627 27.5587 159.431 27.212 158.114 27.212C156.762 27.212 155.548 27.576 154.474 28.304C153.399 28.9973 152.55 29.968 151.926 31.216C151.302 32.4293 150.99 33.8333 150.99 35.428Z" fill="white"/>
</svg>
